<?xml version="1.0" ?><!DOCTYPE svg  PUBLIC '-//W3C//DTD SVG 1.1//EN'  'http://www.w3.org/Graphics/SVG/1.1/DTD/svg11.dtd'><svg enable-background="new 0 0 100 100" height="100px" id="Layer_1" version="1.1" viewBox="0 0 100 100" width="100px" xml:space="preserve" xmlns="http://www.w3.org/2000/svg" xmlns:xlink="http://www.w3.org/1999/xlink"><g><path d="M70.98,5H29.02c-2.22,0-4.25,0.987-4.54,2.23L5.663,87.871C4.76,91.743,7.311,95,11.396,95h77.208   c4.085,0,6.636-3.257,5.733-7.129L75.52,7.23C75.23,5.987,73.2,5,70.98,5z M43.365,7.219h13.269c0.564,0,1.038,0.254,1.061,0.569v0   c0.022,0.317-0.422,0.575-0.991,0.575H43.296c-0.57,0-1.013-0.258-0.991-0.575v0C42.327,7.473,42.802,7.219,43.365,7.219z    M50,91.387c-2.993,0-5.353-2.353-5.274-5.177c0.077-2.742,2.437-4.907,5.274-4.907s5.197,2.165,5.274,4.907   C55.353,89.035,52.993,91.387,50,91.387z M87.866,78.171H12.134l14.164-67.446h47.405L87.866,78.171z"/><g><g><g><path d="M43.835,42.147c1.109,1.637,3.452,2.75,6.165,2.75c2.708,0,5.05-1.111,6.161-2.744      c6.648,0.111,10.593,0.365,12.641,0.587C69.145,50.1,61.485,56.921,50,56.921c-11.492,0-19.153-6.828-18.801-14.193      C33.238,42.506,37.179,42.252,43.835,42.147 M45.544,40.415c-7.981,0.088-15.166,0.431-16.582,1.048      C26.759,50.471,35.223,60,50,60c14.774,0,23.239-9.526,21.039-18.533c-1.413-0.603-8.601-0.951-16.584-1.047      C54.044,41.872,52.248,43,50,43C47.75,43,45.953,41.87,45.544,40.415L45.544,40.415z"/></g><path d="M53.177,39.579c0.083,1.268-1.338,2.345-3.177,2.345c-1.839,0-3.259-1.077-3.177-2.345     c0.079-1.205,1.499-2.138,3.177-2.138C51.677,37.441,53.098,38.375,53.177,39.579z"/></g><path d="M50,28.463c-8.698,0-17.542,4.265-20.406,11.083c-0.05,0.119-0.091,0.237-0.137,0.356    c0.163-0.211,1.063-0.393,2.481-0.545c2.298-5.832,9.667-9.814,17.111-10.1c0.514-0.02,0.95,0.211,0.95,0.502l0,0    c0,0.269-0.374,0.494-0.856,0.512c-6.706,0.252-13.157,3.726-14.888,8.891c2.984-0.199,7.071-0.325,11.417-0.375    c0.588-1.309,2.332-2.236,4.327-2.236c1.993,0,3.735,0.924,4.325,2.232c8.303,0.089,15.712,0.455,16.217,1.118    c-0.046-0.119-0.087-0.237-0.136-0.355C67.542,32.728,58.699,28.463,50,28.463z"/></g></g></svg>