<svg width="48" height="48" viewBox="0 0 48 48" fill="none" xmlns="http://www.w3.org/2000/svg">
<path d="M24.0601 15C28.535 15 32.2474 18.24 32.9698 22.5H42.0601C41.2975 13.26 33.5216 6 24.0601 6C14.5985 6 6.8226 13.26 6.06006 22.5H15.1504C15.8728 18.24 19.5851 15 24.0601 15Z" fill="#151515"/>
<path d="M24.0601 33C19.5851 33 15.8728 29.76 15.1504 25.5H6.06006C6.8226 34.74 14.5985 42 24.0601 42C33.5216 42 41.2975 34.74 42.0601 25.5H32.9698C32.2474 29.76 28.535 33 24.0601 33Z" fill="#151515"/>
<path d="M18.04 24C18.04 27.31 20.739 30 24.0601 30C27.3811 30 30.0801 27.31 30.0801 24C30.0801 20.69 27.3811 18 24.0601 18C20.739 18 18.04 20.69 18.04 24ZM27.0701 24C27.0701 25.66 25.7256 27 24.0601 27C22.3945 27 21.05 25.66 21.05 24C21.05 22.34 22.3945 21 24.0601 21C25.7256 21 27.0701 22.34 27.0701 24Z" fill="#151515"/>
</svg>
